<svg xmlns="http://www.w3.org/2000/svg" fill="none" viewBox="0 0 24 24">
  <path fill="currentColor" d="M18.145 16.268c.37 0 .667.098.888.292a.91.91 0 0 1 .332.728c0 .194-.045.37-.134.528-.09.152-.225.3-.404.446-.18.152-.4.322-.664.51h1.14c.131 0 .197.067.197.2v.327c0 .134-.066.2-.197.2h-2.28c-.131 0-.197-.066-.197-.2v-.282c0-.048.014-.097.044-.145a.766.766 0 0 1 .171-.155c.347-.26.628-.47.844-.628.215-.157.374-.294.475-.41a.545.545 0 0 0 .153-.364.318.318 0 0 0-.099-.245c-.06-.06-.15-.092-.27-.092a.437.437 0 0 0-.242.055.408.408 0 0 0-.116.11.91.91 0 0 0-.054.108.465.465 0 0 1-.098.137.224.224 0 0 1-.117.027h-.458c-.114 0-.167-.057-.162-.172a.913.913 0 0 1 .18-.492 1.18 1.18 0 0 1 .448-.346c.192-.091.398-.137.62-.137ZM7.21 11.489c.4 0 .766.052 1.095.155.329.103.613.252.852.446.24.194.425.422.557.683.131.26.204.552.216.874 0 .054-.022.1-.064.136a.182.182 0 0 1-.135.054H8.71a.252.252 0 0 1-.17-.054.37.37 0 0 1-.1-.182c-.09-.358-.239-.604-.448-.737-.21-.134-.47-.2-.781-.2-.37 0-.664.103-.879.31-.215.206-.333.548-.35 1.027a21.725 21.725 0 0 0 0 1.53c.017.48.135.823.35 1.03.215.205.508.308.879.308.311 0 .572-.067.781-.2.215-.14.365-.386.448-.738.024-.09.057-.151.1-.181a.252.252 0 0 1 .17-.055h1.022c.054 0 .1.018.135.054a.174.174 0 0 1 .064.137 2.091 2.091 0 0 1-.216.874 2.09 2.09 0 0 1-.557.683 2.538 2.538 0 0 1-.852.445 3.65 3.65 0 0 1-1.095.155c-.562 0-1.04-.094-1.436-.282a2.138 2.138 0 0 1-.906-.838c-.215-.37-.335-.818-.36-1.346a33.482 33.482 0 0 1 0-1.62c.025-.522.145-.966.36-1.33.221-.37.53-.652.924-.846.395-.194.868-.292 1.418-.292Z"/>
  <path fill="currentColor" fill-rule="evenodd" d="M13.433 11.489c.526 0 .987.094 1.382.282.4.188.715.47.942.847.227.37.346.829.358 1.375a17.65 17.65 0 0 1 0 1.565c-.018.558-.137 1.023-.358 1.393a2.07 2.07 0 0 1-.925.819c-.395.182-.861.273-1.4.274-.544 0-1.014-.092-1.409-.274a2.07 2.07 0 0 1-.923-.82c-.222-.37-.342-.834-.36-1.392a34.196 34.196 0 0 1 0-1.565c.018-.546.138-1.005.36-1.375.227-.376.537-.659.932-.847.401-.188.868-.282 1.4-.282Zm0 1.175c-.234 0-.44.048-.62.145a1.006 1.006 0 0 0-.43.438c-.102.2-.16.458-.171.773a32.472 32.472 0 0 0 0 1.493c.018.473.138.819.36 1.037.22.213.508.319.86.319.348 0 .632-.106.853-.319.227-.218.347-.564.359-1.037.011-.267.018-.516.018-.747 0-.236-.007-.485-.018-.746-.006-.315-.063-.573-.17-.773a1.006 1.006 0 0 0-.431-.438 1.23 1.23 0 0 0-.61-.145Z" clip-rule="evenodd"/>
  <path fill="currentColor" d="M10.104 4.061c2.12-.679 4.465-.232 6.155 1.192l.306.276a5.911 5.911 0 0 1 1.83 4.566h.141c2.367 0 4.214 2.019 4.214 4.418a.75.75 0 0 1-1.5 0c0-1.653-1.255-2.918-2.714-2.918h-.99a.75.75 0 0 1-.733-.905c.332-1.575-.237-3.21-1.52-4.29-1.286-1.084-3.093-1.435-4.732-.91-1.638.525-2.836 1.834-3.17 3.41a.75.75 0 0 1-.734.595c-2.148 0-3.907 1.767-3.907 3.966a.75.75 0 0 1-1.5 0c0-2.812 2.106-5.141 4.825-5.435.595-1.867 2.096-3.345 4.029-3.965Z"/>
</svg>
