<svg width="20" height="20" viewBox="0 0 20 20" fill="none" xmlns="http://www.w3.org/2000/svg">
<g id="diesel">
<g id="Vector">
<path fill-rule="evenodd" clip-rule="evenodd" d="M5.66703 5.83332C5.32186 5.83332 5.04203 6.11315 5.04203 6.45832V11.4583C5.04203 11.8035 5.32186 12.0833 5.66703 12.0833H7.27418C8.80282 12.0833 10.042 10.8441 10.042 9.31547V8.60118C10.042 7.07254 8.80282 5.83332 7.27418 5.83332H5.66703ZM8.79203 9.31547C8.79203 10.1538 8.11247 10.8333 7.27418 10.8333H6.29203V7.08332H7.27418C8.11246 7.08332 8.79203 7.76289 8.79203 8.60118V9.31547Z" fill="currentColor"/>
<path fill-rule="evenodd" clip-rule="evenodd" d="M2.29199 4.58332C2.29199 3.31767 3.31801 2.29166 4.58366 2.29166H10.417C11.6826 2.29166 12.7087 3.31767 12.7087 4.58332V11.4677C13.8767 11.5729 14.792 12.5546 14.792 13.75V13.9583C14.792 14.4186 15.1651 14.7917 15.6253 14.7917C16.0856 14.7917 16.4587 14.4186 16.4587 13.9583V9.37499H15.8337C15.0282 9.37499 14.3753 8.72207 14.3753 7.91666V5.25887L14.1417 5.02527C13.8976 4.78119 13.8976 4.38546 14.1417 4.14138C14.3858 3.8973 14.7815 3.8973 15.0256 4.14138L17.5256 6.64138C17.6428 6.75859 17.7087 6.91756 17.7087 7.08332V13.9583C17.7087 15.1089 16.7759 16.0417 15.6253 16.0417C14.4747 16.0417 13.542 15.1089 13.542 13.9583V13.75C13.542 13.246 13.1841 12.8257 12.7087 12.7292V16.25C12.7087 17.0554 12.0557 17.7083 11.2503 17.7083H3.75033C2.94491 17.7083 2.29199 17.0554 2.29199 16.25V4.58332ZM10.417 3.54166C10.9923 3.54166 11.4587 4.00803 11.4587 4.58332V16.25C11.4587 16.365 11.3654 16.4583 11.2503 16.4583H3.75033C3.63527 16.4583 3.54199 16.365 3.54199 16.25V4.58332C3.54199 4.00803 4.00836 3.54166 4.58366 3.54166H10.417ZM16.4587 7.34221L15.6253 6.50887V7.91666C15.6253 8.03172 15.7186 8.12499 15.8337 8.12499H16.4587V7.34221Z" fill="currentColor"/>
</g>
</g>
</svg>
