<svg xmlns="http://www.w3.org/2000/svg" fill="none" viewBox="0 0 24 24">
    <path fill="currentColor" d="M13.17 10.335a.75.75 0 1 0-1.34-.67l-1.5 3A.75.75 0 0 0 11 13.75h1.787l-.958 1.915a.75.75 0 0 0 1.342.67l1.5-3A.75.75 0 0 0 14 12.25h-1.787l.958-1.915Z"/>
    <path fill="currentColor" fill-rule="evenodd" d="M9.241 3.25a.75.75 0 0 0 0 1.5h2.009v1.76H6.138c-.369 0-.73.139-1.003.397-.274.26-.437.62-.437 1.006v4.141H2.75v-1.858a.75.75 0 1 0-1.5 0v5.217a.75.75 0 1 0 1.5 0v-1.859h1.948v1.59c0 .385.163.746.437 1.005l3.39 3.206a1.46 1.46 0 0 0 1.002.395h6.67c.369 0 .73-.138 1.003-.396l3.03-2.865h1.08c.37 0 .73-.138 1.003-.396.274-.26.437-.62.437-1.006v-3.913c0-.386-.163-.747-.437-1.006a1.46 1.46 0 0 0-1.003-.396h-1.08L17.2 6.906a1.461 1.461 0 0 0-1.003-.395H12.75V4.75h2.009a.75.75 0 0 0 0-1.5H9.24Zm.299 15-3.342-3.16V8.01h9.986l3.232 3.057a.75.75 0 0 0 .515.205h1.319v3.717h-1.319a.75.75 0 0 0-.515.205l-3.232 3.056H9.54Z" clip-rule="evenodd"/>
</svg>