<svg xmlns="http://www.w3.org/2000/svg" fill="none" viewBox="0 0 24 24">
  <path fill="currentColor" d="M17.358.806a1.25 1.25 0 0 1 1.468.573l.058.114.54 1.229a1.25 1.25 0 0 1-.643 1.647l-5.224 2.29 1.475 3.263a4.625 4.625 0 0 1 .094 3.585l-1.622 4.156a3.074 3.074 0 0 1-1.651 1.715l-.001-.001-2.286 1a4.624 4.624 0 0 1-2.943.259 6.485 6.485 0 0 0-.626 1.835.75.75 0 0 1-1.476-.266 7.987 7.987 0 0 1 1.05-2.756l.06-.099.316-.515.734.256c.745.26 1.56.23 2.284-.087L11.255 18l.007-.002a1.58 1.58 0 0 0 .845-.877v-.002l1.622-4.158a3.126 3.126 0 0 0-.064-2.423l-1.787-3.953a.75.75 0 0 1 .383-.996l5.687-2.494-.338-.772-7.398 3.238a3.995 3.995 0 0 0-2.1 2.19v.005l-4.047 10.1a.267.267 0 0 0 .143.344l.762.325-.72 1.309a9.252 9.252 0 0 0-.893 2.306l-.127.534a.75.75 0 0 1-1.46-.35l.128-.533c.225-.936.574-1.837 1.038-2.68l.016-.031a1.766 1.766 0 0 1-.28-1.782l4.047-10.1a5.495 5.495 0 0 1 2.888-3.01h.004L17.238.85l.12-.044Zm-7.444 9.598a.75.75 0 0 1 .574-.01l2.19.86a.75.75 0 0 1 .426.97l-1.72 4.394a.75.75 0 0 1-.399.414l-3.05 1.331a.75.75 0 0 1-.998-.962l2.579-6.583.067-.132a.75.75 0 0 1 .331-.282Zm-.922 5.86 1.109-.483 1.332-3.406-.794-.312-1.647 4.202Zm11.9-6.113c0-.074-.05-.291-.212-.663a11.48 11.48 0 0 0-.57-1.094c-.078-.135-.159-.266-.235-.39-.076.124-.156.255-.234.39-.214.37-.42.753-.57 1.094-.163.372-.213.589-.213.663 0 .563.454 1.017 1.017 1.017s1.017-.454 1.017-1.017Zm1.5 0a2.514 2.514 0 0 1-2.517 2.517 2.515 2.515 0 0 1-2.517-2.517c0-.414.172-.883.34-1.265.182-.414.418-.852.646-1.245a24.298 24.298 0 0 1 .833-1.33l.06-.087.015-.023.005-.007v-.002h.002a.75.75 0 0 1 1.233 0h.001l.001.002.005.007.016.023.058.087a22.814 22.814 0 0 1 .834 1.33c.228.393.464.831.646 1.245.168.382.339.85.339 1.265Z"/>
</svg>
