<svg xmlns="http://www.w3.org/2000/svg" fill="none" viewBox="0 0 24 24">
    <path fill="currentColor" d="M11.334 15.813c.288.167.588.212.914.026.22-.126.393-.327.495-.554.02-.044.119-.247.269-.555l2.798-5.758a.558.558 0 0 0 .046-.442.376.376 0 0 0-.19-.22.376.376 0 0 0-.286-.055.558.558 0 0 0-.36.26l-3.588 5.304c-.191.283-.317.47-.346.51a1.213 1.213 0 0 0-.232.706c.002.374.194.613.48.778Z"/>
    <path fill="currentColor" fill-rule="evenodd" d="M8.25 19.5a.75.75 0 0 1 .75-.75h6a.75.75 0 0 1 0 1.5H9a.75.75 0 0 1-.75-.75Z" clip-rule="evenodd"/>
    <path fill="currentColor" fill-rule="evenodd" d="M12 4.75a8.75 8.75 0 0 0-8.75 8.75c0 1.889.598 3.636 1.614 5.065a.75.75 0 0 1-1.222.87A10.207 10.207 0 0 1 1.75 13.5C1.75 7.84 6.34 3.25 12 3.25S22.25 7.84 22.25 13.5c0 2.21-.7 4.26-1.892 5.935a.75.75 0 0 1-1.222-.87A8.707 8.707 0 0 0 20.75 13.5 8.75 8.75 0 0 0 12 4.75Z" clip-rule="evenodd"/>
</svg>

