<svg xmlns="http://www.w3.org/2000/svg" fill="none" viewBox="0 0 24 24">
    <path fill="currentColor" fill-rule="evenodd" d="M2.75 5.5A2.75 2.75 0 0 1 5.5 2.75h7a2.75 2.75 0 0 1 2.75 2.75v14a1.75 1.75 0 0 1-1.75 1.75h-9a1.75 1.75 0 0 1-1.75-1.75v-14ZM5.5 4.25c-.69 0-1.25.56-1.25 1.25v14c0 .138.112.25.25.25h9a.25.25 0 0 0 .25-.25v-14c0-.69-.56-1.25-1.25-1.25h-7Z" clip-rule="evenodd"/>
    <path fill="currentColor" fill-rule="evenodd" d="M2.75 9.5a.75.75 0 0 1 .75-.75h11a.75.75 0 0 1 0 1.5h-11a.75.75 0 0 1-.75-.75Zm14.22-4.53a.75.75 0 0 1 1.06 0l3 3c.141.14.22.331.22.53V15a.75.75 0 0 1-1.5 0V8.81l-2.78-2.78a.75.75 0 0 1 0-1.06Z" clip-rule="evenodd"/>
    <path fill="currentColor" fill-rule="evenodd" d="M18 5.25a.75.75 0 0 1 .75.75v3.5c0 .138.112.25.25.25h1.5a.75.75 0 0 1 0 1.5H19a1.75 1.75 0 0 1-1.75-1.75V6a.75.75 0 0 1 .75-.75Z" clip-rule="evenodd"/>
    <path fill="currentColor" fill-rule="evenodd" d="M20.5 10.25a.75.75 0 0 1 .75.75v5.75a2.5 2.5 0 0 1-5 0v-.25c0-.69-.56-1.25-1.25-1.25h-.5a.75.75 0 0 1 0-1.5h.5a2.75 2.75 0 0 1 2.75 2.75v.25a1 1 0 1 0 2 0V11a.75.75 0 0 1 .75-.75Z" clip-rule="evenodd"/>
</svg>
