<svg xmlns="http://www.w3.org/2000/svg" fill="none" viewBox="0 0 24 24">
    <path fill="currentColor" fill-rule="evenodd" d="M7.127 2.472a2.417 2.417 0 0 0-2.8 1.96l-.29 1.641-.03.245c-.05.682.193 1.33.63 1.808-.29.341-.447.79-.413 1.26l.022.175 1.54 8.783c.061.348.226.667.47.917l-.026.033.503.386c.144.138.303.26.474.364l.704.543c.306.235.681.362 1.067.362h8.306a2.75 2.75 0 0 0 2.468-1.537l.085-.191.134-.337c.808-2.021-.941-4.136-3.078-3.72l-5.759 1.12a.905.905 0 0 0 .061-.1l.054-.127a4.687 4.687 0 0 0-.551-4.069l-.921-1.383-1.336-2.384-.074-.12a1.758 1.758 0 0 0-.069-.094 2.4 2.4 0 0 0 .444-.854l.056-.24.289-1.642a2.417 2.417 0 0 0-1.96-2.8Zm10.052 14.164a1.25 1.25 0 0 1 1.4 1.691l-.135.337-.083.17a1.25 1.25 0 0 1-1.077.615h-6.525c.38-.46.611-1.046.625-1.686l5.795-1.127Zm-8.542-.186a1.25 1.25 0 1 1-.578 2.357l-.342-.264a1.25 1.25 0 0 1 .92-2.093ZM6.992 8.84a.252.252 0 0 1 .09.053l.05.061 1.351 2.413.015.026.015.024.937 1.404c.481.722.645 1.606.463 2.445a2.736 2.736 0 0 0-3.08.364l-1.11-6.327-.003-.05a.25.25 0 0 1 .155-.225l.048-.013.532-.105c.183-.002.363-.027.537-.07ZM5.804 4.692a.916.916 0 0 1 1.805.319L7.32 6.652l-.02.091a.915.915 0 0 1-.513.587 1.756 1.756 0 0 0-.207.027l-.247.048a.917.917 0 0 1-.83-.979l.011-.092.29-1.642Z" clip-rule="evenodd"/>
</svg>

