<svg xmlns="http://www.w3.org/2000/svg" fill="none" viewBox="0 0 24 24">
    <path fill="currentColor" fill-rule="evenodd" d="M8 4.75a.75.75 0 0 0-.75.75v3.75c0 .803.33 1.569.908 2.13.578.56 1.357.87 2.165.87h3.354c.425 0 .828.164 1.12.448.293.283.453.662.453 1.052v3.75a.75.75 0 0 0 1.5 0v-3.75a2.97 2.97 0 0 0-.908-2.13 3.112 3.112 0 0 0-2.165-.87h-3.354c-.425 0-.828-.164-1.12-.448A1.465 1.465 0 0 1 8.75 9.25V5.5A.75.75 0 0 0 8 4.75Z" clip-rule="evenodd"/>
    <path fill="currentColor" fill-rule="evenodd" d="M8 4.5a.5.5 0 1 0 0-1 .5.5 0 0 0 0 1ZM8 6a2 2 0 1 0 0-4 2 2 0 0 0 0 4Zm8 13.5a.5.5 0 1 0 0-1 .5.5 0 0 0 0 1Zm0 1.5a2 2 0 1 0 0-4 2 2 0 0 0 0 4Z" clip-rule="evenodd"/>
</svg>
