<svg width="20" height="20" viewBox="0 0 20 20" fill="none" xmlns="http://www.w3.org/2000/svg">
<g id="transmission-manual">
<g id="Vector">
<path fill-rule="evenodd" clip-rule="evenodd" d="M4.58315 4.79165C4.92833 4.79165 5.20815 5.07147 5.20815 5.41665V9.29324C5.58496 9.0757 6.01551 8.95831 6.45815 8.95831H9.99967V5.41665C9.99967 5.07147 10.2795 4.79165 10.6247 4.79165C10.9699 4.79165 11.2497 5.07147 11.2497 5.41665V8.95831H14.9997C15.3312 8.95831 15.6491 8.82662 15.8836 8.5922C16.118 8.35778 16.2497 8.03983 16.2497 7.70831V5.41665C16.2497 5.07147 16.5295 4.79165 16.8747 4.79165C17.2199 4.79165 17.4997 5.07147 17.4997 5.41665V7.70831C17.4997 8.37135 17.2363 9.00724 16.7674 9.47608C16.2986 9.94492 15.6627 10.2083 14.9997 10.2083H11.2497V14.1666C11.2497 14.5118 10.9699 14.7916 10.6247 14.7916C10.2795 14.7916 9.99967 14.5118 9.99967 14.1666V10.2083H6.45815C6.12663 10.2083 5.80869 10.34 5.57427 10.5744C5.33985 10.8088 5.20815 11.1268 5.20815 11.4583V15C5.20815 15.3452 4.92833 15.625 4.58315 15.625C4.23797 15.625 3.95815 15.3452 3.95815 15V5.41665C3.95815 5.07147 4.23797 4.79165 4.58315 4.79165Z" fill="currentColor"/>
<path fill-rule="evenodd" clip-rule="evenodd" d="M5.46689 5.4672C5.70131 5.23278 5.83301 4.91483 5.83301 4.58331C5.83301 4.25179 5.70131 3.93385 5.46689 3.69943C5.23247 3.46501 4.91453 3.33331 4.58301 3.33331C4.25149 3.33331 3.93354 3.46501 3.69912 3.69943C3.4647 3.93385 3.33301 4.25179 3.33301 4.58331C3.33301 4.91483 3.4647 5.23278 3.69912 5.4672C3.93354 5.70162 4.25149 5.83331 4.58301 5.83331C4.91453 5.83331 5.23247 5.70162 5.46689 5.4672ZM11.5086 5.4672C11.743 5.23278 11.8747 4.91483 11.8747 4.58331C11.8747 4.25179 11.743 3.93385 11.5086 3.69943C11.2741 3.46501 10.9562 3.33331 10.6247 3.33331C10.2932 3.33331 9.97521 3.46501 9.74079 3.69943C9.50637 3.93385 9.37467 4.25179 9.37467 4.58331C9.37467 4.91483 9.50637 5.23278 9.74079 5.4672C9.97521 5.70162 10.2932 5.83331 10.6247 5.83331C10.9562 5.83331 11.2741 5.70162 11.5086 5.4672ZM17.7586 5.4672C17.993 5.23278 18.1247 4.91483 18.1247 4.58331C18.1247 4.25179 17.993 3.93385 17.7586 3.69943C17.5241 3.46501 17.2062 3.33331 16.8747 3.33331C16.5432 3.33331 16.2252 3.46501 15.9908 3.69943C15.7564 3.93385 15.6247 4.25179 15.6247 4.58331C15.6247 4.91483 15.7564 5.23278 15.9908 5.4672C16.2252 5.70162 16.5432 5.83331 16.8747 5.83331C17.2062 5.83331 17.5241 5.70162 17.7586 5.4672ZM5.46689 16.3005C5.70131 16.0661 5.83301 15.7482 5.83301 15.4166C5.83301 15.0851 5.70131 14.7672 5.46689 14.5328C5.23247 14.2983 4.91453 14.1666 4.58301 14.1666C4.25149 14.1666 3.93354 14.2983 3.69912 14.5328C3.4647 14.7672 3.33301 15.0851 3.33301 15.4166C3.33301 15.7482 3.4647 16.0661 3.69912 16.3005C3.93354 16.5349 4.25149 16.6666 4.58301 16.6666C4.91453 16.6666 5.23247 16.5349 5.46689 16.3005ZM11.5086 16.3005C11.743 16.0661 11.8747 15.7482 11.8747 15.4166C11.8747 15.0851 11.743 14.7672 11.5086 14.5328C11.2741 14.2983 10.9562 14.1666 10.6247 14.1666C10.2932 14.1666 9.97521 14.2983 9.74079 14.5328C9.50637 14.7672 9.37467 15.0851 9.37467 15.4166C9.37467 15.7482 9.50637 16.0661 9.74079 16.3005C9.97521 16.5349 10.2932 16.6666 10.6247 16.6666C10.9562 16.6666 11.2741 16.5349 11.5086 16.3005Z" fill="currentColor"/>
</g>
</g>
</svg>
